<svg xmlns="http://www.w3.org/2000/svg" xmlns:xlink="http://www.w3.org/1999/xlink" width="500" zoomAndPan="magnify" viewBox="0 0 375 374.999991" height="500" preserveAspectRatio="xMidYMid meet" version="1.0"><defs><clipPath id="id1"><path d="M 0.0585938 12.65625 L 374.941406 12.65625 L 374.941406 362.140625 L 0.0585938 362.140625 Z M 0.0585938 12.65625 " clip-rule="nonzero"/></clipPath></defs><path fill="#004aad" d="M 326.125 255.757812 C 314.503906 262.726562 301.488281 266.394531 288.085938 268.050781 C 283.828125 245.625 274.878906 222.257812 267.335938 204.910156 C 273.144531 197.296875 278.726562 189.511719 284.019531 181.53125 C 287.339844 176.523438 290.800781 171.21875 294.207031 165.6875 C 306.859375 172.125 318.6875 179.617188 329.261719 188.28125 C 355.429688 209.71875 356.957031 237.269531 326.125 255.757812 Z M 270.363281 322.203125 C 246.960938 341.398438 209.625 326.761719 188.347656 311.867188 C 184.449219 309.136719 180.71875 306.203125 177.125 303.125 C 187.519531 293.3125 197.195312 283.128906 205.898438 274.027344 C 226.40625 277.046875 246.382812 278.589844 264.722656 278.589844 C 270.550781 278.589844 276.652344 278.328125 282.847656 277.730469 C 285.417969 295.074219 283.292969 311.601562 270.363281 322.203125 Z M 80.195312 323.335938 C 70.574219 303.085938 81.183594 271.339844 94.660156 242.882812 C 104.527344 247.226562 114.808594 251.1875 125.347656 254.761719 C 135.648438 272.296875 147.597656 288.976562 161.371094 302.863281 C 127.210938 331.207031 92.730469 349.730469 80.195312 323.335938 Z M 58.285156 211.410156 C 36.332031 196.777344 13.972656 174.375 42.660156 153.828125 C 52.503906 146.78125 64.183594 142.035156 76.582031 138.851562 C 81.777344 156.253906 87.578125 171.585938 91.0625 180.894531 C 94.484375 190.039062 98.355469 199.800781 102.710938 209.8125 C 100.445312 214.054688 98.25 218.289062 96.125 222.503906 C 95.058594 224.621094 93.710938 227.304688 92.191406 230.421875 C 80.347656 224.839844 68.976562 218.539062 58.285156 211.410156 Z M 96.8125 43.25 C 132.917969 43.25 163.996094 64.476562 189.847656 93.761719 C 179.507812 103.03125 169.742188 113.136719 160.546875 123.820312 C 148.195312 123.4375 135.933594 123.644531 123.894531 124.429688 C 111.824219 125.222656 98.15625 125.980469 84.558594 127.945312 C 73.769531 92.328125 64.332031 43.25 96.8125 43.25 Z M 262.316406 193.730469 C 254.609375 177.050781 246.355469 160.457031 237.023438 144.539062 C 252.691406 148.578125 268.035156 153.722656 282.507812 160.128906 C 275.835938 172.328125 268.734375 183.910156 262.316406 193.730469 Z M 196.148438 101.175781 C 203.558594 110.230469 210.503906 119.902344 216.980469 129.84375 C 202.511719 127.144531 187.878906 125.363281 173.300781 124.425781 C 173.644531 124.070312 173.980469 123.710938 174.324219 123.355469 C 181.011719 116.425781 188.3125 108.757812 196.148438 101.175781 Z M 109.578125 197.335938 C 104.5625 184.875 99.996094 172.449219 95.652344 160.460938 C 93.96875 155.820312 90.714844 147.128906 87.253906 136.515625 C 105.074219 133.210938 123.683594 132.566406 140 132.566406 C 144.285156 132.566406 148.648438 132.648438 153.058594 132.789062 C 136.605469 153.132812 122.117188 175.195312 109.578125 197.335938 Z M 117.738281 241.136719 C 111.460938 238.808594 105.277344 236.304688 99.195312 233.621094 C 101.75 228.566406 104.328125 223.671875 106.839844 219.039062 C 110.207031 226.375 113.839844 233.785156 117.738281 241.136719 Z M 132.46875 246.234375 C 125.394531 233.550781 119.167969 220.277344 113.523438 206.910156 C 116.214844 202.085938 118.664062 197.734375 120.695312 194.019531 C 132.769531 171.890625 148.027344 151.941406 164.953125 133.351562 C 184.308594 134.554688 204.453125 137.191406 224.3125 141.523438 C 236.960938 162.40625 247.59375 183.875 256.171875 202.90625 C 250.15625 211.675781 245.25 218.171875 242.667969 221.136719 C 237.609375 226.945312 222.886719 243.859375 204.136719 262.984375 C 180.113281 259.199219 155.832031 253.792969 132.46875 246.234375 Z M 140.363281 259.546875 C 158.292969 264.898438 176.714844 269.152344 194.878906 272.269531 C 186.773438 280.261719 178.148438 288.382812 169.382812 296.039062 C 158.347656 285.242188 148.789062 272.863281 140.363281 259.546875 Z M 264.085938 221.054688 C 269.265625 233.324219 277.078125 251 281.140625 268.738281 C 269.175781 269.625 257.039062 269.101562 245.429688 268.058594 C 235.429688 267.15625 225.25 266.015625 214.992188 264.59375 C 230.996094 248.230469 246.492188 231.246094 260.78125 213.324219 C 261.925781 215.964844 263.03125 218.550781 264.085938 221.054688 Z M 277.671875 57.296875 C 324.375 57.296875 310.28125 106.515625 287.203125 151.292969 C 268.835938 143.136719 249.441406 136.898438 229.605469 132.433594 C 221.65625 119.996094 212.925781 108.085938 203.121094 97.011719 C 202.738281 96.578125 202.347656 96.136719 201.945312 95.6875 C 223.796875 75.464844 249.476562 57.296875 277.671875 57.296875 Z M 326.652344 172.996094 C 317.9375 167.113281 308.804688 161.8125 299.355469 157.046875 C 311.339844 136.175781 321.277344 112.730469 319.734375 89.835938 C 316.898438 47.742188 276.300781 40.925781 243.5 56.953125 C 226.390625 65.316406 210.421875 76.160156 195.582031 88.761719 C 170.25 61.851562 123.160156 19.832031 88.457031 32.714844 C 57.792969 44.09375 63.234375 90.285156 73.984375 129.75 C 57.382812 133.054688 41.550781 138.6875 29.617188 148.996094 C 2.210938 172.660156 25.972656 201.484375 48.898438 217.574219 C 60.546875 225.753906 73.667969 233.152344 87.753906 239.746094 C 70.488281 277.007812 43.960938 347.136719 95.277344 347.140625 C 121.253906 347.140625 146.707031 330.359375 169.269531 310.324219 C 189.675781 328.355469 213.785156 340.109375 242.113281 340.109375 C 285.464844 340.109375 293.953125 310.722656 289.519531 276.949219 C 313.042969 273.722656 336.914062 265.164062 351.171875 246.539062 C 373.171875 217.796875 351.90625 190.027344 326.652344 172.996094 " fill-opacity="1" fill-rule="nonzero"/><path fill="#ff1616" d="M 222.78125 194.777344 C 220.882812 211.371094 206.089844 223.871094 190.410156 227.664062 C 173.054688 231.863281 156.808594 218.289062 153.054688 201.785156 C 150.164062 189.066406 154.523438 176.640625 163.527344 168.164062 C 170.957031 155.140625 191.238281 153.207031 203.863281 159.046875 C 217.183594 165.210938 224.410156 180.496094 222.78125 194.777344 " fill-opacity="1" fill-rule="nonzero"/><g clip-path="url(#id1)"><path fill="#004aad" d="M 326.851562 205.382812 C 321.15625 204.824219 316.644531 205.785156 311.355469 202.65625 C 306.414062 199.730469 303.839844 195.421875 301.503906 190.351562 C 301.0625 189.390625 299.53125 189.894531 299.554688 190.882812 C 299.699219 197.195312 304.320312 202.644531 309.511719 205.804688 C 314.238281 208.6875 322.5 211.183594 327.449219 207.589844 C 328.425781 206.882812 328.054688 205.5 326.851562 205.382812 Z M 220.453125 225.042969 C 213.371094 227.636719 207.296875 232.105469 199.898438 234.167969 C 192.046875 236.355469 184.300781 236.300781 176.238281 236.300781 C 174.800781 236.300781 174.5 238.425781 175.898438 238.808594 C 183.984375 241.03125 192.941406 240.148438 200.960938 238.015625 C 208.214844 236.085938 217.035156 232.835938 221.6875 226.648438 C 222.253906 225.898438 221.308594 224.730469 220.453125 225.042969 Z M 139.941406 14.015625 C 134.976562 12.1875 126.707031 11.613281 122.949219 16.117188 C 122.515625 16.644531 122.757812 17.601562 123.546875 17.566406 C 126.203125 17.449219 128.695312 16.425781 131.375 16.375 C 134.65625 16.320312 138.035156 17.15625 140.90625 18.742188 C 145.523438 21.296875 147.441406 28.5 152.664062 29.503906 C 153.691406 29.699219 154.324219 28.761719 153.933594 27.851562 C 151.417969 21.984375 145.992188 16.242188 139.941406 14.015625 Z M 96.800781 52.964844 C 88.890625 54.113281 83.449219 64.1875 81.65625 71.132812 C 80.027344 77.445312 79.402344 89.738281 86.023438 93.589844 C 86.910156 94.105469 88.058594 93.445312 88.058594 92.417969 C 88.058594 89.378906 86.4375 86.597656 85.878906 83.617188 C 85.179688 79.902344 85.359375 76.0625 86.246094 72.398438 C 87.085938 68.90625 88.535156 65.578125 90.640625 62.660156 C 92.753906 59.730469 95.738281 57.742188 97.972656 54.972656 C 98.757812 54.003906 98.011719 52.789062 96.800781 52.964844 Z M 370.910156 209.601562 C 370.25 208.289062 368.269531 209.222656 368.601562 210.574219 C 370.964844 220.234375 371.992188 229.679688 369.542969 239.460938 C 368.421875 243.964844 366.679688 248.277344 364.382812 252.308594 C 362.023438 256.460938 358.671875 259.929688 356.300781 264.046875 C 355.722656 265.050781 356.859375 266.089844 357.839844 265.582031 C 366.582031 261.023438 371.519531 248.902344 373.570312 239.824219 C 375.816406 229.914062 375.546875 218.8125 370.910156 209.601562 Z M 327.785156 55.722656 C 319.863281 45.019531 307.351562 38.003906 294.09375 36.90625 C 292.960938 36.8125 292.746094 38.609375 293.828125 38.875 C 306.410156 41.964844 318.734375 48.082031 326.011719 59.226562 C 330.042969 65.398438 331.9375 72.484375 332.609375 79.773438 C 333.25 86.746094 331.570312 94.359375 333.019531 101.140625 C 333.273438 102.320312 334.871094 102.121094 335.21875 101.140625 C 337.777344 93.933594 336.875 83.796875 335.839844 76.324219 C 334.8125 68.882812 332.269531 61.78125 327.785156 55.722656 Z M 276.976562 341.113281 C 269.015625 344.953125 261.546875 349.136719 252.757812 350.859375 C 243.824219 352.609375 234.464844 352.316406 225.605469 350.296875 C 223.996094 349.929688 223.367188 352.242188 224.925781 352.761719 C 241.753906 358.367188 265.480469 356.417969 278.304688 342.828125 C 279.179688 341.898438 278.082031 340.578125 276.976562 341.113281 Z M 202.699219 348.972656 C 197.464844 345.796875 191.675781 343.777344 186.566406 340.328125 C 181.082031 336.625 176.851562 331.835938 171.832031 327.628906 C 171.09375 327.011719 170.066406 327.769531 170.5 328.65625 C 175.65625 339.148438 190.433594 349.898438 202.171875 350.921875 C 203.25 351.015625 203.53125 349.472656 202.699219 348.972656 Z M 84.78125 357.917969 C 70.234375 358.511719 59.632812 350.769531 55.542969 336.671875 C 51.253906 321.878906 55.238281 306.71875 54.023438 291.707031 C 53.921875 290.4375 51.96875 289.972656 51.664062 291.382812 C 49.679688 300.609375 49.148438 310.640625 49.050781 320.054688 C 48.972656 328.078125 49.851562 336.113281 53.070312 343.53125 C 58.003906 354.90625 72.359375 367.351562 85.308594 359.867188 C 86.1875 359.363281 85.835938 357.875 84.78125 357.917969 Z M 21.734375 210.453125 C 22.492188 211.125 21.875 212.394531 20.929688 212.398438 C 11.824219 212.414062 5.285156 202.152344 2.539062 194.597656 C -1.789062 182.660156 0.375 169.945312 2.824219 157.875 C 3.136719 156.332031 5.734375 156.683594 5.578125 158.246094 C 4.53125 168.804688 2.976562 180.253906 5.996094 190.617188 C 7.304688 195.101562 9.539062 199.410156 12.640625 202.917969 C 15.289062 205.921875 18.773438 207.824219 21.734375 210.453125 " fill-opacity="1" fill-rule="nonzero"/></g><path fill="#ff1616" d="M 133.71875 164.421875 C 129.457031 162.003906 124.492188 160.269531 119.648438 161.894531 C 117.625 162.570312 115.28125 164.066406 114.042969 166.003906 C 110.683594 170.359375 110.304688 177.355469 112.445312 182.832031 C 116.535156 193.296875 126.160156 194.09375 134.539062 187.796875 C 138.605469 184.738281 141.992188 180.414062 141.84375 175.085938 C 141.699219 169.941406 137.867188 166.773438 133.71875 164.421875 Z M 339.324219 172.617188 C 325.011719 153.867188 297.472656 175.886719 309.671875 192.003906 C 320.941406 206.890625 352.570312 189.96875 339.324219 172.617188 Z M 142.328125 55.332031 C 133.902344 62.179688 120.082031 64.242188 114.882812 52.347656 C 112.132812 46.0625 113.808594 39.824219 117.796875 35.347656 C 122.511719 25.671875 133.152344 21.128906 143.0625 28.546875 C 152.625 35.699219 151.132812 48.175781 142.328125 55.332031 " fill-opacity="1" fill-rule="nonzero"/><path fill="#ffffff" d="M 129.410156 166.082031 C 128.414062 166.035156 127.722656 167.484375 128.546875 168.15625 C 130.460938 169.710938 132.429688 170.714844 133.597656 173.035156 C 134.613281 175.058594 134.371094 177.414062 135.300781 179.390625 C 135.523438 179.867188 136.195312 179.871094 136.535156 179.550781 C 138.664062 177.515625 137.578125 173.660156 136.371094 171.414062 C 135.015625 168.886719 132.433594 166.21875 129.410156 166.082031 Z M 323.585938 172.410156 C 324.113281 171.96875 323.835938 170.972656 323.171875 170.839844 C 312.019531 168.605469 305.707031 191.210938 319.753906 191.234375 C 320.589844 191.234375 320.886719 190.261719 320.394531 189.683594 C 319.421875 188.53125 318.191406 187.792969 317.144531 186.734375 C 315.117188 184.691406 315.300781 181.71875 316.535156 179.269531 C 318.175781 176 320.929688 174.632812 323.585938 172.410156 Z M 126.648438 31.230469 C 122.125 34.214844 118.132812 37.992188 118.347656 43.863281 C 118.480469 47.390625 120.851562 53.175781 125.234375 52.242188 C 125.910156 52.097656 126.097656 51.316406 125.835938 50.769531 C 124.429688 47.878906 121.859375 46.566406 121.988281 42.867188 C 122.121094 39.003906 124.925781 35.082031 127.652344 32.539062 C 128.335938 31.902344 127.441406 30.707031 126.648438 31.230469 Z M 202.992188 213.402344 C 199.558594 213.777344 196.390625 215.398438 192.984375 216.09375 C 188.804688 216.945312 184.558594 217.175781 180.3125 216.886719 C 179.070312 216.804688 178.796875 218.800781 180.015625 219.0625 C 187.191406 220.59375 198.121094 220.925781 203.820312 215.398438 C 204.496094 214.746094 204.03125 213.289062 202.992188 213.402344 Z M 174.046875 167.472656 C 168.949219 173.941406 165.847656 181.71875 164.675781 189.839844 C 164.0625 194.082031 163.570312 198.738281 164.886719 202.898438 C 166.160156 206.933594 169.34375 209.785156 171.585938 213.257812 C 172.109375 214.066406 171.246094 214.890625 170.4375 214.75 C 160.265625 212.996094 158.785156 199.8125 159.863281 191.613281 C 161.171875 181.707031 164.511719 171.980469 172.8125 165.878906 C 173.832031 165.128906 174.6875 166.660156 174.046875 167.472656 " fill-opacity="1" fill-rule="nonzero"/></svg>