<svg xmlns="http://www.w3.org/2000/svg" xmlns:xlink="http://www.w3.org/1999/xlink" width="500" zoomAndPan="magnify" viewBox="0 0 375 374.999991" height="500" preserveAspectRatio="xMidYMid meet" version="1.0"><path fill="#000000" d="M 318.761719 56.238281 C 320.910156 58.386719 323.003906 60.585938 325.042969 62.835938 C 327.082031 65.089844 329.066406 67.386719 330.992188 69.734375 C 332.921875 72.085938 334.789062 74.476562 336.597656 76.917969 C 338.410156 79.359375 340.15625 81.839844 341.84375 84.367188 C 343.53125 86.894531 345.15625 89.457031 346.71875 92.0625 C 348.28125 94.667969 349.777344 97.3125 351.210938 99.992188 C 352.640625 102.671875 354.007812 105.382812 355.308594 108.128906 C 356.605469 110.875 357.835938 113.652344 359 116.457031 C 360.160156 119.265625 361.253906 122.097656 362.277344 124.957031 C 363.300781 127.820312 364.253906 130.703125 365.136719 133.609375 C 366.019531 136.515625 366.828125 139.441406 367.566406 142.390625 C 368.304688 145.335938 368.96875 148.300781 369.5625 151.277344 C 370.15625 154.257812 370.675781 157.25 371.121094 160.257812 C 371.566406 163.261719 371.9375 166.273438 372.234375 169.296875 C 372.535156 172.320312 372.757812 175.351562 372.90625 178.382812 C 373.054688 181.417969 373.128906 184.453125 373.128906 187.492188 C 373.128906 190.53125 373.054688 193.566406 372.90625 196.601562 C 372.757812 199.632812 372.535156 202.664062 372.234375 205.6875 C 371.9375 208.710938 371.566406 211.722656 371.121094 214.730469 C 370.675781 217.734375 370.15625 220.726562 369.5625 223.707031 C 368.972656 226.683594 368.304688 229.648438 367.566406 232.59375 C 366.828125 235.542969 366.019531 238.46875 365.136719 241.375 C 364.257812 244.28125 363.304688 247.167969 362.28125 250.027344 C 361.257812 252.886719 360.164062 255.71875 359 258.527344 C 357.839844 261.332031 356.609375 264.109375 355.308594 266.855469 C 354.011719 269.601562 352.644531 272.316406 351.214844 274.992188 C 349.78125 277.671875 348.285156 280.316406 346.722656 282.921875 C 345.160156 285.527344 343.535156 288.09375 341.847656 290.617188 C 340.160156 293.144531 338.414062 295.628906 336.601562 298.066406 C 334.792969 300.507812 332.925781 302.902344 330.996094 305.25 C 329.070312 307.597656 327.085938 309.898438 325.046875 312.148438 C 323.007812 314.398438 320.914062 316.597656 318.765625 318.746094 C 316.617188 320.894531 314.417969 322.988281 312.167969 325.03125 C 309.914062 327.070312 307.617188 329.054688 305.269531 330.980469 C 302.917969 332.90625 300.523438 334.777344 298.085938 336.585938 C 295.644531 338.394531 293.164062 340.144531 290.636719 341.832031 C 288.109375 343.519531 285.546875 345.144531 282.941406 346.707031 C 280.332031 348.269531 277.691406 349.765625 275.011719 351.199219 C 272.332031 352.628906 269.621094 353.996094 266.875 355.292969 C 264.128906 356.59375 261.351562 357.824219 258.546875 358.984375 C 255.738281 360.148438 252.90625 361.242188 250.046875 362.265625 C 247.183594 363.289062 244.300781 364.242188 241.394531 365.125 C 238.488281 366.003906 235.558594 366.816406 232.613281 367.554688 C 229.667969 368.292969 226.703125 368.957031 223.722656 369.550781 C 220.746094 370.140625 217.753906 370.660156 214.746094 371.109375 C 211.742188 371.554688 208.730469 371.925781 205.707031 372.222656 C 202.683594 372.519531 199.652344 372.746094 196.621094 372.894531 C 193.585938 373.042969 190.550781 373.117188 187.511719 373.117188 C 184.472656 373.117188 181.4375 373.042969 178.402344 372.894531 C 175.371094 372.746094 172.339844 372.519531 169.316406 372.222656 C 166.292969 371.925781 163.28125 371.554688 160.273438 371.109375 C 157.269531 370.664062 154.277344 370.144531 151.296875 369.550781 C 148.320312 368.957031 145.355469 368.292969 142.410156 367.554688 C 139.460938 366.816406 136.535156 366.007812 133.628906 365.125 C 130.722656 364.242188 127.835938 363.289062 124.976562 362.265625 C 122.117188 361.246094 119.285156 360.152344 116.476562 358.988281 C 113.671875 357.828125 110.894531 356.59375 108.148438 355.296875 C 105.402344 353.996094 102.6875 352.632812 100.007812 351.199219 C 97.332031 349.769531 94.6875 348.273438 92.082031 346.710938 C 89.476562 345.148438 86.910156 343.523438 84.386719 341.835938 C 81.859375 340.148438 79.375 338.398438 76.9375 336.589844 C 74.496094 334.78125 72.101562 332.914062 69.753906 330.984375 C 67.40625 329.058594 65.105469 327.074219 62.855469 325.035156 C 60.605469 322.996094 58.402344 320.898438 56.257812 318.753906 C 54.109375 316.605469 52.015625 314.40625 49.972656 312.152344 C 47.933594 309.902344 45.949219 307.601562 44.023438 305.253906 C 42.09375 302.90625 40.226562 300.511719 38.417969 298.074219 C 36.609375 295.632812 34.859375 293.148438 33.171875 290.625 C 31.484375 288.097656 29.859375 285.53125 28.296875 282.925781 C 26.734375 280.320312 25.238281 277.679688 23.804688 275 C 22.375 272.320312 21.007812 269.609375 19.710938 266.863281 C 18.410156 264.117188 17.179688 261.339844 16.015625 258.53125 C 14.855469 255.726562 13.761719 252.894531 12.738281 250.03125 C 11.714844 247.171875 10.761719 244.289062 9.878906 241.382812 C 9 238.476562 8.1875 235.546875 7.449219 232.601562 C 6.710938 229.652344 6.046875 226.691406 5.453125 223.710938 C 4.859375 220.730469 4.339844 217.738281 3.894531 214.734375 C 3.449219 211.730469 3.078125 208.714844 2.78125 205.691406 C 2.484375 202.667969 2.257812 199.640625 2.109375 196.605469 C 1.960938 193.574219 1.886719 190.535156 1.886719 187.5 C 1.886719 184.460938 1.960938 181.425781 2.109375 178.390625 C 2.257812 175.355469 2.480469 172.328125 2.78125 169.304688 C 3.078125 166.28125 3.449219 163.265625 3.894531 160.261719 C 4.339844 157.257812 4.859375 154.265625 5.453125 151.285156 C 6.046875 148.304688 6.710938 145.34375 7.449219 142.394531 C 8.1875 139.449219 8.996094 136.523438 9.878906 133.617188 C 10.761719 130.707031 11.710938 127.824219 12.734375 124.964844 C 13.757812 122.105469 14.851562 119.269531 16.015625 116.464844 C 17.175781 113.65625 18.40625 110.882812 19.707031 108.136719 C 21.003906 105.390625 22.371094 102.675781 23.804688 99.996094 C 25.234375 97.316406 26.730469 94.675781 28.292969 92.070312 C 29.855469 89.464844 31.480469 86.898438 33.167969 84.371094 C 34.855469 81.847656 36.605469 79.363281 38.414062 76.921875 C 40.222656 74.484375 42.089844 72.089844 44.019531 69.742188 C 45.945312 67.390625 47.929688 65.09375 49.96875 62.84375 C 52.007812 60.589844 54.101562 58.390625 56.25 56.242188 C 58.398438 54.09375 60.597656 52 62.851562 49.960938 C 65.101562 47.921875 67.398438 45.9375 69.75 44.011719 C 72.097656 42.082031 74.492188 40.214844 76.929688 38.40625 C 79.371094 36.59375 81.855469 34.847656 84.378906 33.160156 C 86.90625 31.46875 89.472656 29.847656 92.078125 28.285156 C 94.683594 26.722656 97.324219 25.226562 100.003906 23.792969 C 102.683594 22.359375 105.394531 20.996094 108.140625 19.695312 C 110.886719 18.398438 113.664062 17.167969 116.472656 16.003906 C 119.277344 14.84375 122.109375 13.75 124.972656 12.726562 C 127.832031 11.703125 130.714844 10.75 133.621094 9.867188 C 136.527344 8.984375 139.457031 8.175781 142.402344 7.4375 C 145.347656 6.699219 148.3125 6.035156 151.292969 5.441406 C 154.269531 4.847656 157.261719 4.328125 160.269531 3.882812 C 163.273438 3.4375 166.289062 3.066406 169.3125 2.769531 C 172.335938 2.46875 175.363281 2.246094 178.398438 2.097656 C 181.429688 1.949219 184.46875 1.875 187.503906 1.875 C 190.542969 1.875 193.578125 1.949219 196.613281 2.097656 C 199.648438 2.246094 202.675781 2.46875 205.699219 2.765625 C 208.722656 3.066406 211.738281 3.4375 214.742188 3.882812 C 217.746094 4.328125 220.738281 4.847656 223.71875 5.441406 C 226.699219 6.03125 229.660156 6.699219 232.605469 7.4375 C 235.554688 8.175781 238.480469 8.984375 241.386719 9.867188 C 244.296875 10.746094 247.179688 11.699219 250.039062 12.722656 C 252.898438 13.746094 255.734375 14.839844 258.539062 16.003906 C 261.347656 17.164062 264.121094 18.394531 266.867188 19.695312 C 269.613281 20.992188 272.328125 22.359375 275.007812 23.789062 C 277.6875 25.222656 280.328125 26.71875 282.933594 28.28125 C 285.539062 29.84375 288.105469 31.46875 290.632812 33.15625 C 293.15625 34.84375 295.640625 36.589844 298.082031 38.402344 C 300.519531 40.210938 302.914062 42.078125 305.261719 44.007812 C 307.609375 45.933594 309.910156 47.917969 312.160156 49.957031 C 314.414062 51.996094 316.613281 54.089844 318.761719 56.238281 Z M 318.761719 56.238281 " fill-opacity="1" fill-rule="nonzero"/><path fill="#ffffff" d="M 68.710938 208.050781 L 220.84375 208.050781 L 220.84375 221.417969 C 220.84375 228.765625 214.828125 234.78125 207.480469 234.78125 L 82.078125 234.78125 C 74.730469 234.78125 68.710938 228.765625 68.710938 221.417969 Z M 68.710938 208.050781 " fill-opacity="1" fill-rule="evenodd"/><path fill="#ffffff" d="M 87.46875 162.164062 C 85.71875 162.164062 84.296875 163.589844 84.296875 165.335938 C 84.296875 167.085938 85.71875 168.507812 87.46875 168.507812 C 91.550781 168.515625 97.507812 168.53125 103.152344 168.539062 C 108.867188 168.546875 114.265625 168.554688 117.082031 168.5625 C 118.832031 168.5625 120.253906 167.144531 120.253906 165.390625 C 120.253906 163.644531 118.832031 162.21875 117.082031 162.21875 C 114.265625 162.210938 108.867188 162.203125 103.152344 162.195312 C 97.507812 162.1875 91.550781 162.171875 87.46875 162.164062 Z M 134.847656 162.273438 C 133.101562 162.273438 131.675781 163.695312 131.675781 165.445312 C 131.675781 167.191406 133.09375 168.617188 134.847656 168.617188 C 150.433594 168.632812 167.671875 168.625 181.023438 168.578125 C 192.027344 168.539062 200.394531 168.46875 203.03125 168.367188 C 208.433594 168.160156 215.339844 176.046875 220.683594 182.152344 C 224.820312 186.867188 228.199219 190.726562 231.363281 190.726562 L 277.921875 190.726562 C 279.679688 190.726562 281.101562 189.304688 281.101562 187.550781 C 281.101562 185.792969 279.679688 184.371094 277.921875 184.371094 L 231.363281 184.371094 C 231.054688 184.371094 228.539062 181.492188 225.453125 177.980469 C 219.238281 170.890625 211.199219 161.710938 202.808594 162.035156 C 200.148438 162.132812 191.878906 162.203125 181.023438 162.242188 C 167.671875 162.28125 150.433594 162.289062 134.847656 162.273438 Z M 134.847656 162.273438 " fill-opacity="1" fill-rule="nonzero"/><path fill="#ffffff" d="M 158.050781 142.859375 C 156.296875 142.859375 154.871094 144.285156 154.871094 146.039062 C 154.871094 147.796875 156.296875 149.21875 158.050781 149.21875 L 170.464844 149.21875 C 172.21875 149.21875 173.644531 147.796875 173.644531 146.039062 C 173.644531 144.285156 172.21875 142.859375 170.464844 142.859375 Z M 158.050781 142.859375 " fill-opacity="1" fill-rule="nonzero"/><path fill="#ffffff" d="M 161.074219 158.050781 C 161.074219 159.804688 162.496094 161.230469 164.253906 161.230469 C 166.007812 161.230469 167.433594 159.804688 167.433594 158.050781 L 167.433594 146.046875 C 167.433594 144.292969 166.007812 142.867188 164.253906 142.867188 C 162.496094 142.867188 161.074219 144.292969 161.074219 146.046875 Z M 161.074219 158.050781 " fill-opacity="1" fill-rule="nonzero"/><path fill="#ffffff" d="M 158.050781 152.808594 C 156.296875 152.808594 154.871094 154.230469 154.871094 155.984375 C 154.871094 157.742188 156.296875 159.164062 158.050781 159.164062 L 170.464844 159.164062 C 172.21875 159.164062 173.644531 157.742188 173.644531 155.984375 C 173.644531 154.230469 172.21875 152.808594 170.464844 152.808594 Z M 158.050781 152.808594 " fill-opacity="1" fill-rule="nonzero"/><path fill="#ffffff" d="M 167.441406 158.050781 C 167.441406 156.296875 166.015625 154.871094 164.261719 154.871094 C 162.503906 154.871094 161.082031 156.296875 161.082031 158.050781 L 161.082031 165.453125 C 161.082031 167.207031 162.503906 168.632812 164.261719 168.632812 C 166.015625 168.632812 167.441406 167.207031 167.441406 165.453125 Z M 167.441406 158.050781 " fill-opacity="1" fill-rule="nonzero"/><path fill="#ffffff" d="M 166.355469 163.070312 C 165.042969 161.910156 163.039062 162.035156 161.878906 163.339844 C 160.71875 164.65625 160.84375 166.660156 162.148438 167.820312 C 162.164062 167.835938 167.378906 172.398438 164.199219 173.441406 C 161.570312 174.308594 159.660156 175.460938 158.492188 176.769531 C 157.441406 177.941406 156.914062 179.242188 156.914062 180.621094 C 156.914062 181.988281 157.441406 183.296875 158.492188 184.472656 C 159.660156 185.777344 161.570312 186.929688 164.199219 187.796875 C 167.292969 188.808594 158.144531 196.660156 158.121094 196.683594 C 156.796875 197.828125 156.652344 199.832031 157.796875 201.160156 C 158.941406 202.484375 160.945312 202.632812 162.273438 201.484375 C 162.328125 201.441406 180.0625 186.328125 166.164062 181.765625 C 165.019531 181.386719 164.183594 181.007812 163.65625 180.628906 C 164.191406 180.253906 165.019531 179.867188 166.164062 179.488281 C 179.976562 174.949219 166.394531 163.109375 166.355469 163.070312 Z M 166.355469 163.070312 " fill-opacity="1" fill-rule="nonzero"/><path fill="#ffffff" d="M 78.347656 140.207031 C 76.59375 140.207031 75.171875 141.632812 75.171875 143.386719 C 75.171875 145.140625 76.59375 146.566406 78.347656 146.566406 L 90.761719 146.566406 C 92.519531 146.566406 93.941406 145.140625 93.941406 143.386719 C 93.941406 141.632812 92.519531 140.207031 90.761719 140.207031 Z M 78.347656 140.207031 " fill-opacity="1" fill-rule="nonzero"/><path fill="#ffffff" d="M 81.367188 153.804688 C 81.367188 155.558594 82.789062 156.984375 84.542969 156.984375 C 86.300781 156.984375 87.722656 155.558594 87.722656 153.804688 L 87.722656 143.394531 C 87.722656 141.640625 86.300781 140.214844 84.542969 140.214844 C 82.789062 140.214844 81.367188 141.640625 81.367188 143.394531 Z M 81.367188 153.804688 " fill-opacity="1" fill-rule="nonzero"/><path fill="#ffffff" d="M 78.347656 150.625 C 76.59375 150.625 75.171875 152.050781 75.171875 153.804688 C 75.171875 155.558594 76.59375 156.984375 78.347656 156.984375 L 90.761719 156.984375 C 92.519531 156.984375 93.941406 155.558594 93.941406 153.804688 C 93.941406 152.050781 92.519531 150.625 90.761719 150.625 Z M 78.347656 150.625 " fill-opacity="1" fill-rule="nonzero"/><path fill="#ffffff" d="M 87.730469 153.804688 C 87.730469 152.050781 86.308594 150.625 84.550781 150.625 C 82.796875 150.625 81.375 152.050781 81.375 153.804688 L 81.375 160.898438 C 81.375 162.652344 82.796875 164.074219 84.550781 164.074219 C 86.308594 164.074219 87.730469 162.652344 87.730469 160.898438 Z M 87.730469 153.804688 " fill-opacity="1" fill-rule="nonzero"/><path fill="#ffffff" d="M 112.835938 165.390625 L 112.835938 203.804688 L 139.085938 203.804688 L 139.085938 164.632812 C 139.085938 157.417969 133.175781 151.507812 125.960938 151.507812 C 118.746094 151.507812 112.835938 157.417969 112.835938 164.632812 Z M 130.261719 166.304688 C 130.261719 168.675781 128.335938 170.597656 125.96875 170.597656 C 123.59375 170.597656 121.675781 168.671875 121.675781 166.304688 C 121.675781 163.929688 123.601562 162.011719 125.96875 162.011719 C 128.335938 162.003906 130.261719 163.929688 130.261719 166.304688 Z M 130.261719 166.304688 " fill-opacity="1" fill-rule="evenodd"/><path fill="#ffffff" d="M 76.183594 191.308594 L 92.929688 191.308594 L 92.929688 203.804688 L 76.183594 203.804688 Z M 76.183594 191.308594 " fill-opacity="1" fill-rule="evenodd"/><path fill="#ffffff" d="M 84.929688 178.695312 L 78 178.695312 C 75.695312 178.695312 73.816406 180.574219 73.816406 182.878906 L 73.816406 187.0625 L 95.296875 187.0625 L 95.296875 182.878906 C 95.296875 180.574219 93.414062 178.695312 91.109375 178.695312 Z M 84.929688 178.695312 " fill-opacity="1" fill-rule="evenodd"/><path fill="#ffffff" d="M 84.171875 174.457031 L 84.929688 174.457031 C 88.660156 174.457031 91.707031 171.40625 91.707031 167.679688 L 91.707031 160.90625 L 77.382812 160.90625 L 77.382812 167.679688 C 77.390625 171.398438 80.445312 174.457031 84.171875 174.457031 Z M 84.171875 174.457031 " fill-opacity="1" fill-rule="evenodd"/><path fill="#ffffff" d="M 191.585938 180.046875 L 186.09375 203.804688 L 205.421875 203.804688 L 199.9375 180.046875 Z M 191.585938 180.046875 " fill-opacity="1" fill-rule="evenodd"/><path fill="#ffffff" d="M 157.207031 194.0625 L 171.300781 194.0625 L 171.300781 203.804688 L 157.207031 203.804688 Z M 157.207031 194.0625 " fill-opacity="1" fill-rule="evenodd"/><path fill="#ffffff" d="M 264.0625 144.019531 L 278.394531 157.863281 L 291.976562 157.863281 L 306.308594 144.019531 Z M 264.0625 144.019531 " fill-opacity="1" fill-rule="evenodd"/><path fill="#ffffff" d="M 272.65625 162.109375 L 297.714844 162.109375 L 297.714844 178.335938 L 272.65625 178.335938 Z M 272.65625 162.109375 " fill-opacity="1" fill-rule="evenodd"/><path fill="#ffffff" d="M 272.65625 182.574219 C 272.65625 184.339844 273.019531 186.011719 273.675781 187.535156 C 275.597656 191.988281 280.027344 195.105469 285.1875 195.105469 C 292.109375 195.105469 297.714844 189.5 297.714844 182.574219 Z M 272.65625 182.574219 " fill-opacity="1" fill-rule="evenodd"/><path fill="#ffffff" d="M 190.503906 165.359375 L 190.503906 175.878906 L 201.007812 175.878906 L 201.007812 165.242188 C 198.679688 165.289062 195.050781 165.328125 190.503906 165.359375 Z M 190.503906 165.359375 " fill-opacity="1" fill-rule="evenodd"/></svg>